<svg width="45" height="45" fill="none" xmlns="http://www.w3.org/2000/svg"><path d="M37.195 17.985c-.479 0-.952.043-1.416.13C35.12 10.995 29.113 5.4 21.824 5.4c-3.68 0-7.157 1.416-9.79 3.987a13.926 13.926 0 00-4.156 8.633C3.968 18.395.9 21.7.9 25.706c0 4.258 3.464 7.722 7.722 7.722h1.362a1.09 1.09 0 100-2.179H8.622a5.55 5.55 0 01-5.543-5.543 5.55 5.55 0 015.779-5.536c.035.001.07.001.106-.001.028.005.057.009.086.011a5.542 5.542 0 013.491 1.607 1.086 1.086 0 001.54 0 1.09 1.09 0 000-1.54 7.726 7.726 0 00-4.023-2.126c.638-5.986 5.629-10.542 11.766-10.542 6.526 0 11.835 5.31 11.835 11.835l-.002.118a1.09 1.09 0 001.492 1.023 5.515 5.515 0 012.045-.391 5.55 5.55 0 015.543 5.542 5.549 5.549 0 01-5.542 5.543H35.83a1.09 1.09 0 000 2.18h1.364c4.258 0 7.721-3.465 7.721-7.723s-3.463-7.721-7.721-7.721z" fill="#fff"/><path d="M29.328 22.964h-.074V21.38c0-3.364-2.737-6.1-6.1-6.1a6.107 6.107 0 00-6.101 6.1v1.583h-.074a2.981 2.981 0 00-2.977 2.977v10.284a2.98 2.98 0 002.977 2.978h12.349a2.981 2.981 0 002.977-2.978V25.941a2.981 2.981 0 00-2.977-2.977zM19.232 21.38a3.926 3.926 0 013.921-3.921 3.926 3.926 0 013.922 3.921v1.583h-7.843V21.38zm10.894 14.844a.8.8 0 01-.798.799H16.979a.8.8 0 01-.799-.799V25.941a.8.8 0 01.799-.798h12.349a.8.8 0 01.798.798v10.284z" fill="#fff"/><path d="M25.421 31.833c.475-.56.744-1.277.744-2.025a3.137 3.137 0 00-3.134-3.134 3.133 3.133 0 00-2.37 5.184l-.525 2.186a1.09 1.09 0 001.059 1.345h3.7a1.09 1.09 0 001.059-1.345l-.533-2.211zm-1.838-1.247a1.09 1.09 0 00-.428 1.143l.357 1.48h-.934l.353-1.464a1.09 1.09 0 00-.44-1.151.956.956 0 111.496-.786.946.946 0 01-.404.778z" fill="#fff"/></svg>