<svg width="45" height="45" fill="none" xmlns="http://www.w3.org/2000/svg"><path d="M38.959 37.75l-4.197-5.395a6.075 6.075 0 003.32-2.458c.989-1.709.542-3.794.11-5.807a15.869 15.869 0 01-.468-3.159c.05-1.067.206-2.126.467-3.161.43-2.015.88-4.099-.108-5.804-1.024-1.769-3.085-2.423-5.078-3.055a14.771 14.771 0 01-2.867-1.123 14.01 14.01 0 01-2.297-1.862C26.362 4.554 24.686 3 22.552 3s-3.81 1.554-5.29 2.926c-.697.7-1.467 1.324-2.296 1.862-.914.472-1.874.848-2.866 1.12-1.993.632-4.054 1.287-5.078 3.055-.988 1.708-.54 3.793-.108 5.807.261 1.035.417 2.094.466 3.161a15.856 15.856 0 01-.467 3.161c-.43 2.016-.88 4.099.109 5.805a6.074 6.074 0 003.323 2.457l-4.2 5.395a.69.69 0 00.63 1.108l4.932-.616 1.217 4.259a.69.69 0 001.207.234l4.405-5.665a6.377 6.377 0 004.016 1.793 6.377 6.377 0 004.017-1.793l4.404 5.663a.69.69 0 001.207-.232l1.218-4.259 4.93.616a.69.69 0 00.631-1.107zm-25.083 3.065l-1.006-3.522a.69.69 0 00-.748-.494l-3.862.482 3.461-4.45.381.123c.991.273 1.951.648 2.864 1.12.83.538 1.6 1.162 2.297 1.862l.237.22-3.624 4.659zm8.676-3.332c-1.593 0-2.933-1.242-4.352-2.557a15.205 15.205 0 00-2.544-2.047c-1-.523-2.053-.94-3.14-1.241-1.823-.579-3.545-1.125-4.301-2.431-.721-1.248-.35-2.986.046-4.828.284-1.129.451-2.284.498-3.448a16.881 16.881 0 00-.497-3.448c-.395-1.84-.768-3.58-.046-4.828.758-1.306 2.478-1.852 4.3-2.43a15.995 15.995 0 003.14-1.242 15.2 15.2 0 002.543-2.046c1.42-1.316 2.76-2.558 4.353-2.558s2.933 1.242 4.352 2.558a15.202 15.202 0 002.545 2.046c1 .523 2.052.94 3.14 1.241 1.822.579 3.544 1.125 4.3 2.431.722 1.248.35 2.986-.046 4.828a16.892 16.892 0 00-.498 3.448c.047 1.164.213 2.32.498 3.448.395 1.841.767 3.58.046 4.828-.759 1.306-2.478 1.852-4.301 2.43-1.087.303-2.14.719-3.14 1.242a15.2 15.2 0 00-2.543 2.047c-1.42 1.315-2.76 2.557-4.353 2.557zm10.434-.684a.69.69 0 00-.748.494l-1.01 3.522-3.623-4.66.237-.218c.698-.7 1.467-1.325 2.296-1.863a14.763 14.763 0 012.866-1.12l.382-.122 3.462 4.45-3.862-.483z" fill="#fff"/><path d="M22.552 8.517c-6.857 0-12.414 5.558-12.414 12.414s5.557 12.414 12.414 12.414c6.855 0 12.413-5.558 12.413-12.414-.008-6.853-5.56-12.406-12.414-12.414zm0 23.448c-6.095 0-11.035-4.94-11.035-11.034s4.94-11.035 11.035-11.035c6.094 0 11.034 4.94 11.034 11.035-.007 6.091-4.943 11.027-11.034 11.034z" fill="#fff"/><path d="M30.51 18.05a1.379 1.379 0 00-1.115-.567h-4.222l-1.31-4.019a1.38 1.38 0 00-2.622 0l-1.306 4.019h-4.226a1.38 1.38 0 00-.812 2.494l3.418 2.483-1.306 4.019a1.38 1.38 0 002.123 1.542l3.42-2.482 3.419 2.482a1.36 1.36 0 001.622 0 1.36 1.36 0 00.5-1.542l-1.305-4.019 3.418-2.483a1.38 1.38 0 00.303-1.927zm-4.939 3.59a.69.69 0 00-.25.771l1.46 4.495-3.824-2.778a.69.69 0 00-.81 0l-3.824 2.778 1.46-4.495a.69.69 0 00-.25-.771l-3.824-2.778h4.726a.69.69 0 00.656-.476l1.46-4.496 1.462 4.495a.69.69 0 00.655.476l4.727.001-3.824 2.777z" fill="#fff"/></svg>