<svg width="45" height="45" fill="none" xmlns="http://www.w3.org/2000/svg"><path d="M23.792 26.167h12.666a.792.792 0 000-1.584H23.792a.792.792 0 000 1.584z" fill="#fff"/><path d="M42 19.042v-3.167c0-.765-.228-1.473-.605-2.079-.01-.019-.01-.041-.022-.058l-4.896-7.87A3.937 3.937 0 0033.116 4h-20.23c-1.38 0-2.635.7-3.362 1.868l-4.895 7.87c-.01.015-.01.033-.02.05A3.918 3.918 0 004 15.875v3.167c0 1.298.638 2.444 1.609 3.166A3.941 3.941 0 004 25.375v3.167c0 1.298.638 2.444 1.609 3.166A3.941 3.941 0 004 34.875v3.167A3.964 3.964 0 007.958 42h10.38a.791.791 0 100-1.583H7.959a2.378 2.378 0 01-2.375-2.375v-3.167A2.377 2.377 0 017.958 32.5h13.243a.792.792 0 000-1.583H7.958a2.378 2.378 0 01-2.375-2.375v-3.167A2.377 2.377 0 017.958 23h30.084a2.378 2.378 0 012.375 2.375v3.167c0 .348-.086.698-.25 1.035a.793.793 0 001.421.697A3.894 3.894 0 0042 28.542v-3.167a3.944 3.944 0 00-1.609-3.167A3.946 3.946 0 0042 19.042zM10.868 6.704a2.358 2.358 0 012.016-1.12h20.23c.827 0 1.58.419 2.018 1.12l3.266 5.25c-.119-.014-.234-.037-.356-.037H7.958c-.122 0-.237.023-.356.034l3.266-5.247zm29.549 12.338a2.378 2.378 0 01-2.375 2.375H7.958a2.378 2.378 0 01-2.375-2.375v-3.167A2.377 2.377 0 017.958 13.5h30.084a2.377 2.377 0 012.375 2.375v3.167z" fill="#fff"/><path d="M7.167 36.458a2.378 2.378 0 002.375 2.375 2.378 2.378 0 002.375-2.375 2.378 2.378 0 00-2.375-2.375 2.377 2.377 0 00-2.375 2.375zm3.167 0a.792.792 0 11-1.584 0 .792.792 0 011.584 0zM36.458 30.917c-.144 0-.288.008-.43.02-1.318-1.979-3.533-3.187-5.903-3.187-3.686 0-6.728 2.814-7.089 6.406a3.962 3.962 0 00-3.203 3.886A3.964 3.964 0 0023.791 42h12.667A5.548 5.548 0 0042 36.458a5.548 5.548 0 00-5.542-5.541zm0 9.5H23.79a2.378 2.378 0 01-2.375-2.375 2.378 2.378 0 012.375-2.375.792.792 0 00.792-.792 5.548 5.548 0 015.542-5.542c1.979 0 3.824 1.091 4.81 2.847a.79.79 0 00.83.391c.226-.04.456-.071.693-.071a3.964 3.964 0 013.958 3.958 3.964 3.964 0 01-3.958 3.959zM36.458 15.083H23.792a.792.792 0 000 1.583h12.666a.792.792 0 000-1.583zM36.458 18.25H23.792a.792.792 0 000 1.583h12.666a.792.792 0 000-1.583zM9.542 15.083a2.377 2.377 0 00-2.375 2.375 2.377 2.377 0 002.375 2.375 2.378 2.378 0 002.375-2.375 2.378 2.378 0 00-2.375-2.375zm0 3.167a.792.792 0 110-1.584.792.792 0 010 1.584zM7.167 26.959a2.378 2.378 0 002.375 2.375 2.378 2.378 0 002.375-2.375 2.378 2.378 0 00-2.375-2.375 2.377 2.377 0 00-2.375 2.375zm3.167 0a.792.792 0 11-1.584-.001.792.792 0 011.584 0z" fill="#fff"/></svg>