<svg width="45" height="45" fill="none" xmlns="http://www.w3.org/2000/svg"><path d="M16.793 12.805l-.717.26a3.377 3.377 0 00-2.154 2.526l-.243 1.274a2.141 2.141 0 00.453 1.774c.41.496 1.014.781 1.658.781h6.214a2.146 2.146 0 002.117-2.528l-.227-1.268a3.37 3.37 0 00-2.161-2.567l-.76-.276v-1.12a.611.611 0 00-.008-.092 3.047 3.047 0 00.872-2.121v-1.67a2.958 2.958 0 00-2.955-2.954 2.958 2.958 0 00-2.954 2.955v1.72c0 .81.333 1.55.87 2.086a.622.622 0 00-.005.076v1.144zm5.878 3.037l.227 1.268a.907.907 0 01-.895 1.068H15.79a.906.906 0 01-.892-1.079l.243-1.275c.14-.73.66-1.34 1.358-1.592l.47-.17a2.846 2.846 0 001.914.737 2.85 2.85 0 001.877-.7.608.608 0 00.053-.054l.496.18a2.12 2.12 0 011.362 1.617zM17.17 7.78c0-.945.769-1.713 1.713-1.713.797 0 1.467.548 1.657 1.287-.08.039-.162.075-.245.109-.764.306-1.38.265-1.557.141a.62.62 0 10-.713 1.017c.303.213.715.32 1.185.32.427 0 .901-.09 1.386-.265v.772c0 .475-.196.94-.539 1.276a1.736 1.736 0 01-.575.375c-.2.08-.414.12-.633.114A1.721 1.721 0 0117.17 9.5V7.78zm1.656 4.675h.056c.292 0 .577-.044.85-.128v.994a1.621 1.621 0 01-1.696 0v-.992c.251.076.516.12.79.126zM9.114 30.05h19.337a.62.62 0 100-1.241H9.114a.62.62 0 100 1.241zm0 3.348h19.337a.62.62 0 100-1.242H9.114a.62.62 0 100 1.242zm0 3.348h19.337a.62.62 0 100-1.242H9.114a.62.62 0 100 1.242zm0 3.348h19.337a.62.62 0 100-1.242H9.114a.62.62 0 100 1.242zm-.621-17.36c0 .343.278.62.621.62h19.337a.62.62 0 100-1.241H9.114a.62.62 0 00-.62.62zm.621 3.968h19.337a.62.62 0 100-1.242H9.114a.62.62 0 100 1.242zM6.82 30.053a.623.623 0 100-1.247.623.623 0 000 1.247zm0-6.696a.623.623 0 100-1.247.623.623 0 000 1.247zm0 3.347a.623.623 0 100-1.246.623.623 0 000 1.246zm0 6.696a.623.623 0 100-1.246.623.623 0 000 1.246zm0 3.348a.623.623 0 100-1.246.623.623 0 000 1.246zm0 3.348a.623.623 0 100-1.246.623.623 0 000 1.246z" fill="#fff"/><path d="M42.01 10.779c-.25-.317-.487-.617-.601-.893-.124-.298-.173-.691-.224-1.108-.09-.73-.193-1.558-.77-2.136-.578-.578-1.406-.68-2.136-.77-.417-.052-.811-.1-1.11-.224-.275-.114-.575-.351-.892-.602-.436-.345-.916-.723-1.484-.895v-.188A2.967 2.967 0 0031.83 1H5.964A2.967 2.967 0 003 3.963v5.33a.62.62 0 101.242 0v-5.33c0-.949.772-1.721 1.722-1.721H31.83c.95 0 1.722.772 1.722 1.721v.188c-.568.172-1.047.55-1.484.895-.317.25-.616.488-.892.602-.298.124-.692.172-1.11.224-.73.09-1.557.192-2.135.77-.578.578-.68 1.405-.77 2.136-.052.417-.1.81-.224 1.108-.115.276-.351.576-.602.893-.464.587-.99 1.252-.99 2.104 0 .852.526 1.517.99 2.104.25.317.487.617.602.893.123.298.172.692.224 1.109.09.73.192 1.558.77 2.135.578.578 1.405.68 2.136.77.218.027.429.054.623.09v9.386c0 .367.206.696.536.857.33.161.716.12 1.006-.107l1.32-1.033v11.337c0 .949-.773 1.721-1.722 1.721H5.964c-.95 0-1.722-.772-1.722-1.721V9.094a.62.62 0 10-1.242 0v31.33a2.967 2.967 0 002.964 2.963H31.83a2.967 2.967 0 002.964-2.964V29.087l1.32 1.033a.95.95 0 001.006.107.947.947 0 00.536-.858v-6.928a.62.62 0 10-1.242 0v6.337l-1.65-1.292a.956.956 0 00-1.18-.002l-1.652 1.294v-8.165l.136.107c.587.464 1.253.99 2.105.99.852 0 1.517-.526 2.104-.99.317-.25.617-.487.893-.602.298-.123.692-.172 1.109-.223.73-.09 1.558-.193 2.136-.77.577-.578.68-1.406.77-2.136.051-.417.1-.811.224-1.109.114-.276.35-.576.601-.893.464-.587.99-1.252.99-2.104 0-.852-.526-1.517-.99-2.104zm-.974 3.438c-.292.37-.594.752-.774 1.187-.189.454-.25.951-.31 1.432-.072.584-.14 1.134-.415 1.41-.276.276-.827.344-1.41.416-.482.06-.979.12-1.433.309-.435.18-.817.482-1.187.774-.47.372-.914.723-1.334.723-.42 0-.865-.351-1.335-.723-.37-.292-.752-.594-1.187-.774a3.865 3.865 0 00-.156-.059c-.41-.143-.85-.197-1.276-.25-.583-.072-1.134-.14-1.41-.416-.276-.276-.344-.826-.416-1.41-.06-.48-.12-.978-.309-1.432-.18-.435-.482-.817-.774-1.187-.372-.47-.723-.914-.723-1.334 0-.42.351-.864.723-1.334.292-.37.594-.752.774-1.187.188-.454.25-.951.31-1.432.071-.583.14-1.134.415-1.41.276-.276.827-.344 1.41-.416.481-.06.979-.12 1.432-.309.436-.18.818-.482 1.187-.774.47-.37.913-.72 1.332-.722h.005c.42.001.863.351 1.333.722.37.292.751.594 1.186.774.454.188.951.25 1.432.31.584.071 1.135.14 1.41.415.276.276.344.827.416 1.41.06.48.121.978.31 1.432.18.435.482.817.774 1.187.371.47.722.914.722 1.334 0 .42-.35.864-.722 1.334z" fill="#fff"/><path d="M38.159 10.91l-2.113-.598-1.222-1.824a.783.783 0 00-1.303 0l-1.222 1.824-2.113.598a.783.783 0 00-.403 1.24l1.358 1.725-.084 2.194a.783.783 0 001.054.766l2.061-.758 2.061.758a.783.783 0 001.055-.766l-.085-2.194 1.358-1.726a.783.783 0 00-.402-1.24zm-2.036 2.33a.786.786 0 00-.167.515l.065 1.679-1.578-.58a.785.785 0 00-.541 0l-1.578.58.065-1.68a.787.787 0 00-.168-.515l-1.04-1.32 1.618-.458a.785.785 0 00.438-.318l.935-1.397.935 1.397a.786.786 0 00.439.318l1.617.458-1.04 1.32z" fill="#fff"/></svg>