<svg width="45" height="45" fill="none" xmlns="http://www.w3.org/2000/svg"><path d="M41.494 12.281l1.119-2.983a.672.672 0 00-1.056-.755L30.79 17.41a2.018 2.018 0 00-.67 2.05l.192.747a.936.936 0 01-.388 1.015l-.026.018a.918.918 0 01-1.137-.093l-1.6-2.277-.384-1.921a2.51 2.51 0 01.375-1.898 2.543 2.543 0 011.304-.995 1.795 1.795 0 011.38.098l1.769.884a.672.672 0 00.952-.764l-.43-1.724a2.827 2.827 0 00-.885-1.445l.536-2.67a1.35 1.35 0 00-.895-1.541l-.9-.303-.009-.003-.084-.023v-.862a.672.672 0 00-1.343 0v.862c-.028.008-.057.014-.084.023l-.009.003-.898.302a1.35 1.35 0 00-.897 1.542l.433 2.151c-.336.081-.665.19-.984.325l-.85-1.277.839-2.517a2.018 2.018 0 00-1.164-2.509l-1.76-.704v-.888a.672.672 0 00-1.344 0v.888l-1.762.704a2.018 2.018 0 00-1.164 2.51l.84 2.517-.852 1.276a6.34 6.34 0 00-.983-.325l.433-2.151a1.35 1.35 0 00-.896-1.542l-.9-.302-.008-.003c-.028-.009-.056-.015-.084-.023v-.862a.672.672 0 00-1.344 0v.862c-.028.008-.056.014-.084.023l-.008.003-.899.302a1.35 1.35 0 00-.896 1.542l.536 2.67c-.435.38-.744.884-.884 1.445l-.432 1.724a.673.673 0 00.953.764l1.769-.884a1.797 1.797 0 011.38-.098 2.539 2.539 0 011.68 1.906c.065.326.064.661-.002.986l-.384 1.922-1.6 2.276a.918.918 0 01-1.136.093l-.026-.017a.936.936 0 01-.389-1.015c.066-.25.133-.512.193-.748a2.018 2.018 0 00-.67-2.049L3.442 8.543a.672.672 0 00-1.057.755l1.12 2.983a10.347 10.347 0 003.057 4.307l.309.257-3.101-.387a.672.672 0 00-.643 1.039 8.134 8.134 0 003.935 3.123l.476.178-3.254.362a.672.672 0 00-.271 1.244l1.178.707c1.41.847 2.958 1.44 4.573 1.75a9.808 9.808 0 00-2.605 2.64.672.672 0 00.559 1.046h.265a8.643 8.643 0 003.766-.86v1.532a.672.672 0 001.147.475l1.54-1.54.87.868a.672.672 0 001.034-.102l.598-.898c.208-.313.508-.555.858-.692v.102a2.03 2.03 0 01-.59 1.426l-.476.477a5.5 5.5 0 00-1.621 3.915.672.672 0 00.595.667l-.386.772-.839.21-1.714-1.918a2.014 2.014 0 10-1.059.833l1.3 1.453-.076.019a.67.67 0 00-.183 1.228.672.672 0 00.509.076l.764-.191.59.654a.673.673 0 00.998-.9l-.111-.123.447-.112a.67.67 0 00.438-.352l.821-1.644h.593a.672.672 0 00.601-.372 3.805 3.805 0 011.21-1.412l.19.286-1.584 2.774a8.276 8.276 0 00-1.089 4.099.672.672 0 001.344 0 6.93 6.93 0 01.911-3.432l.918-1.606-.08.2a9.183 9.183 0 00-.385 5.673.67.67 0 101.303-.326 7.848 7.848 0 01.33-4.847l.008-.022.354.532v6.515a.672.672 0 101.344 0V35.47l.354-.532.009.021c.62 1.54.735 3.238.329 4.847a.67.67 0 00.488.818.673.673 0 00.815-.492 9.184 9.184 0 00-.385-5.672l-.08-.201.918 1.606a6.93 6.93 0 01.912 3.433.672.672 0 101.343 0c0-1.438-.376-2.85-1.088-4.1L25.2 32.425l.19-.286c.515.363.93.849 1.21 1.412a.672.672 0 00.601.372h.593l.822 1.644a.672.672 0 00.438.351l1.738.436a2.687 2.687 0 103.128-3.69v-.757a.672.672 0 00-1.344 0v.757a2.694 2.694 0 00-1.992 2.253l-.904-.227-.387-.772a.672.672 0 00.596-.667 5.499 5.499 0 00-1.621-3.915l-.477-.477a2.03 2.03 0 01-.59-1.427v-.101c.35.137.65.379.859.692l.598.898a.671.671 0 001.034.102l.869-.869 1.54 1.54a.672.672 0 001.147-.474v-1.532a8.645 8.645 0 003.767.86h.265a.672.672 0 00.559-1.045 9.81 9.81 0 00-2.606-2.64 14.005 14.005 0 004.574-1.751l1.178-.707a.672.672 0 00-.272-1.244L37.46 20.8l.476-.179a8.135 8.135 0 003.935-3.122.672.672 0 00-.643-1.04l-3.1.388.308-.257a10.345 10.345 0 003.058-4.308zm-30.52 20.291a.671.671 0 11.51-.145.67.67 0 01-.51.145zM33.25 36.61a1.344 1.344 0 01-1.162-.672h2.324a1.344 1.344 0 01-1.162.672zm1.162-2.015h-.49v-.49c.203.118.372.287.49.49zm-1.834-.49v.49h-.49c.118-.203.287-.373.49-.49zM19.14 19.813h6.719v7.765a.671.671 0 01-.46.638l-2.9.966-2.9-.966a.671.671 0 01-.46-.638v-7.765zm11.297-6.861a3.132 3.132 0 00-2.406-.171 3.89 3.89 0 00-2.575 2.92 3.844 3.844 0 00.004 1.51l.25 1.258h-2.436l.342-2.394a5.037 5.037 0 014.987-4.325h.777a1.486 1.486 0 011.443 1.125l.076.307-.462-.23zm-2.456-4.785l.895-.3c.223-.07.46-.07.683 0l.902.304-.463 2.304a2.83 2.83 0 00-.618-.069h-.777c-.06 0-.118 0-.177.002l-.445-2.24zm-7.415-2.311l1.933-.773 1.934.773a.673.673 0 01.387.836l-.79 2.37h-3.062l-.79-2.37a.673.673 0 01.388-.836zm.277 4.55h3.312l.774 1.16a6.4 6.4 0 00-2.43 3.362 6.401 6.401 0 00-2.43-3.362l.774-1.16zm-5.404-2.54c.222-.07.46-.07.683 0l.901.305-.45 2.237a6.985 6.985 0 00-.177-.002h-.778c-.207 0-.414.024-.616.069l-.459-2.308.896-.3zm1.528 4.915a3.132 3.132 0 00-2.406.17l-.462.232.077-.307a1.486 1.486 0 011.442-1.126h.778a5.038 5.038 0 014.986 4.325l.342 2.394h-2.436l.25-1.257a3.844 3.844 0 00-.574-2.906 3.89 3.89 0 00-1.997-1.525zM15.82 27.276l-.144.216-.764-.764a.672.672 0 00-.95 0l-.87.868v-1.065a.672.672 0 00-1.044-.559 7.309 7.309 0 01-2.855 1.131 8.46 8.46 0 012.335-1.726l.521-.26a.672.672 0 00-.19-1.264l-1.522-.254a12.663 12.663 0 01-3.9-1.326l4.043-.449a.672.672 0 00.161-1.297l-3.106-1.165a6.81 6.81 0 01-2.216-1.356l3.66.457a.672.672 0 00.513-1.183l-2.07-1.724a9 9 0 01-2.66-3.747l-.237-.633 8.83 7.271a.669.669 0 01.222.68l-.191.74a2.28 2.28 0 00.944 2.473l.026.017a2.262 2.262 0 002.879-.307.663.663 0 00.067-.082l.494-.703v1.57l-.48.361a2.757 2.757 0 01-3.179.089.67.67 0 00-1.032.428.673.673 0 00.287.69 4.101 4.101 0 004.404.088v1.441a3.174 3.174 0 00-1.976 1.344zm11.498 3.009a4.161 4.161 0 011.175 2.293h-.894a5.134 5.134 0 00-2.112-1.945.672.672 0 00-.86.229L22.5 34.054l-2.128-3.193a.672.672 0 00-.86-.228 5.135 5.135 0 00-2.111 1.945h-.895c.14-.87.55-1.672 1.175-2.293l.477-.477c.18-.18.338-.38.472-.598.166.121.35.216.545.28l3.113 1.038a.672.672 0 00.425 0l3.112-1.037c.195-.065.379-.16.545-.28.134.216.293.417.472.597l.477.477zm10.257-14.729l-2.068 1.724a.671.671 0 00.513 1.183l3.66-.457a6.81 6.81 0 01-2.216 1.356l-3.107 1.165a.672.672 0 00.162 1.297l4.043.449c-1.22.652-2.537 1.1-3.901 1.326l-1.522.253a.672.672 0 00-.19 1.264l.52.26a8.463 8.463 0 012.336 1.727 7.306 7.306 0 01-2.855-1.131.672.672 0 00-1.045.56v1.065l-.868-.869a.67.67 0 00-.95 0l-.765.764-.143-.215a3.175 3.175 0 00-1.977-1.345V24.49a4.1 4.1 0 004.404-.088.672.672 0 00-.745-1.118 2.756 2.756 0 01-3.178-.088l-.48-.36v-1.57l.494.703a.67.67 0 00.067.081 2.262 2.262 0 002.879.307l.026-.017a2.28 2.28 0 00.943-2.473l-.19-.74a.67.67 0 01.222-.68l8.83-7.27-.238.632a9 9 0 01-2.66 3.747z" fill="#fff"/><path d="M20.68 26.334a.672.672 0 00.95 0 1.988 1.988 0 00.54-1.818h.694c.2.276.308.609.307.95v.393a.672.672 0 001.344 0v-.393a2.942 2.942 0 00-.637-1.835.672.672 0 01.637-.46.672.672 0 000-1.343 2.019 2.019 0 00-1.9 1.344h-.788v-1.344a.672.672 0 10-1.344 0v2.016c0 .103.024.205.07.297l.001.003.247.494a.646.646 0 01-.12.746.672.672 0 000 .95z" fill="#fff"/></svg>