<svg width="45" height="45" fill="none" xmlns="http://www.w3.org/2000/svg"><path d="M18.532 39.035c0 .532.431.962.962.962h6.012c.53 0 .961-.43.961-.962v-1.863a15.058 15.058 0 003.609-1.496l1.316 1.316a.962.962 0 001.36 0L37 32.74a.962.962 0 000-1.36l-1.315-1.314a15.052 15.052 0 001.496-3.609h1.856c.532 0 .962-.43.962-.962v-6.011a.961.961 0 00-.962-.962H37.18a15.057 15.057 0 00-1.495-3.608l1.308-1.307a.962.962 0 000-1.36l-4.253-4.25a.961.961 0 00-1.36 0l-1.305 1.307a15.055 15.055 0 00-3.609-1.496V5.961a.961.961 0 00-.96-.961h-6.012c-.53 0-.962.43-.962.961V7.81c-1.263.34-2.472.84-3.608 1.495L13.62 7.998a.962.962 0 00-1.36 0l-4.252 4.249a.96.96 0 000 1.36l1.307 1.307a15.052 15.052 0 00-1.496 3.608H5.965a.961.961 0 00-.962.961L5 25.495a.96.96 0 00.961.962h1.857c.34 1.264.842 2.473 1.496 3.608L7.999 31.38a.961.961 0 000 1.36l4.25 4.252a.962.962 0 001.36 0l1.315-1.316a15.072 15.072 0 003.608 1.496v1.864zm-3.23-5.381a.962.962 0 00-1.203.128l-1.17 1.17-2.89-2.892 1.17-1.17a.961.961 0 00.127-1.201 13.16 13.16 0 01-1.821-4.395.962.962 0 00-.94-.76H6.923l.003-4.089h1.649a.961.961 0 00.94-.76 13.16 13.16 0 011.82-4.394.961.961 0 00-.127-1.202l-1.162-1.162 2.892-2.89 1.161 1.161a.962.962 0 001.202.128 13.155 13.155 0 014.395-1.821.962.962 0 00.76-.94V6.923h4.088v1.642a.96.96 0 00.76.94c1.567.336 3.046.949 4.395 1.82a.96.96 0 001.201-.127l1.161-1.16 2.892 2.89-1.162 1.161a.961.961 0 00-.127 1.202 13.168 13.168 0 011.82 4.395c.096.443.488.76.941.76h1.652v4.088h-1.652a.962.962 0 00-.94.76 13.158 13.158 0 01-1.821 4.394.962.962 0 00.127 1.202l1.17 1.17-2.89 2.892-1.17-1.17a.961.961 0 00-1.203-.128 13.166 13.166 0 01-4.394 1.821.961.961 0 00-.76.94v1.66h-4.089v-1.66a.962.962 0 00-.759-.94 13.16 13.16 0 01-4.395-1.821z" fill="#fff"/><path d="M30.445 22.499c0-4.381-3.564-7.945-7.945-7.945-4.38 0-7.944 3.564-7.944 7.945 0 4.38 3.563 7.944 7.944 7.944 4.38 0 7.945-3.564 7.945-7.944zm-13.966 0a6.028 6.028 0 016.021-6.022 6.028 6.028 0 016.022 6.022A6.028 6.028 0 0122.5 28.52a6.028 6.028 0 01-6.02-6.02z" fill="#fff"/></svg>