<svg width="24" height="26" fill="none" xmlns="http://www.w3.org/2000/svg"><path d="M23.044 7.054v-.02c-.012-.25-.02-.514-.024-.808a2.756 2.756 0 00-2.595-2.7c-2.989-.166-5.301-1.14-7.277-3.067L13.13.443a1.664 1.664 0 00-2.261 0l-.017.016c-1.976 1.926-4.289 2.9-7.278 3.068a2.755 2.755 0 00-2.595 2.7c-.004.291-.012.556-.023.807l-.001.047c-.058 3.048-.13 6.842 1.138 10.286.698 1.893 1.755 3.54 3.142 4.892 1.579 1.541 3.647 2.764 6.147 3.636A1.9 1.9 0 0012 26a1.866 1.866 0 00.619-.105c2.497-.873 4.563-2.098 6.14-3.638 1.386-1.354 2.443-3 3.141-4.894 1.274-3.454 1.202-7.255 1.144-10.309zm-2.575 9.781c-1.339 3.63-4.071 6.122-8.354 7.62a.344.344 0 01-.23 0c-4.287-1.495-7.021-3.986-8.359-7.616-1.17-3.174-1.103-6.656-1.045-9.729v-.017c.012-.264.02-.54.025-.844A1.225 1.225 0 013.66 5.05c1.692-.094 3.178-.421 4.543-1 1.364-.576 2.575-1.39 3.703-2.487a.14.14 0 01.189 0c1.127 1.097 2.338 1.91 3.702 2.488 1.366.578 2.852.905 4.544 1a1.224 1.224 0 011.154 1.198c.004.306.012.582.024.844.058 3.076.123 6.561-1.05 9.742z" fill="#2486E0"/><path d="M12 6.521a6.487 6.487 0 00-6.48 6.48A6.487 6.487 0 0012 19.48 6.487 6.487 0 0018.48 13 6.487 6.487 0 0012 6.52zm0 11.433a4.96 4.96 0 01-4.954-4.953A4.96 4.96 0 0112 8.047 4.96 4.96 0 0116.954 13 4.96 4.96 0 0112 17.955z" fill="#2486E0"/><path d="M13.862 10.989l-3.01 3.01-.816-.818a.763.763 0 10-1.08 1.08l1.357 1.356a.76.76 0 001.079 0l3.549-3.55a.763.763 0 00-1.079-1.078z" fill="#2486E0"/></svg>